<svg width="113" height="50" viewBox="0 0 113 50" fill="none" xmlns="http://www.w3.org/2000/svg">
<path fill-rule="evenodd" clip-rule="evenodd" d="M10.7112 8.9576L11.6289 8.80839L25.2688 0.372259C25.7335 0.0910112 26.6671 -0.0397099 27.2784 0.450164L41.0319 8.63277L35.634 12.0157L27.355 7.21069C26.2221 6.65743 25.6596 6.71421 24.6402 7.22257L16.2767 12.4488" fill="#003A80"/>
<path fill-rule="evenodd" clip-rule="evenodd" d="M16.2054 16.0284L21.3193 19.9962L17.5324 22.4918L13.0166 19.1036L11.9629 18.7484" fill="#003A80"/>
<path fill-rule="evenodd" clip-rule="evenodd" d="M31.6093 13.0785L27.5781 10.7322C26.906 10.2859 25.9989 10.2595 25.4192 10.6714L20.9575 13.6358L21.6296 17.1613L30.6626 17.1098" fill="#003A80"/>
<path fill-rule="evenodd" clip-rule="evenodd" d="M31.8113 19.7018L35.9812 22.6767L41.7012 18.7418L37.6212 16.0574" fill="#003A80"/>
<path fill-rule="evenodd" clip-rule="evenodd" d="M40.7466 14.3792L45.9411 11.2974L50.5784 14.3885L44.9151 17.1864" fill="#003A80"/>
<path fill-rule="evenodd" clip-rule="evenodd" d="M66.0471 12.4091L56.663 7.0403C56.1057 6.77622 55.6225 6.79735 55.2607 7.01654L27.8792 22.4826C27.2771 22.847 26.5747 22.8747 25.8484 22.5552L12.1597 14.8981C11.757 14.7278 11.3846 14.766 10.9489 14.7489L0.23504 14.7L0.137329 8.6763L10.8036 8.5535C11.4163 8.53501 11.8349 8.52973 12.2548 8.72383L25.3625 15.5055C26.0874 15.825 26.6829 15.8013 27.2032 15.4566L54.6784 0.360325C55.4297 -0.122947 56.5547 -0.136151 57.4116 0.418424L71.6563 9.28633" fill="#E10026"/>
<path fill-rule="evenodd" clip-rule="evenodd" d="M50.5468 20.2524L53.5573 21.9082L55.4706 22.9962C55.8944 23.1692 56.3117 23.1573 56.6286 23.1507L56.581 17.1494L54.273 16.8272" fill="#003A80"/>
<path fill-rule="evenodd" clip-rule="evenodd" d="M0.00518799 18.6217H11.7582C12.2058 18.5979 12.5544 18.5425 12.8713 18.7181L25.2555 26.2313C26.0187 26.6419 27.2625 26.5521 27.9161 26.1824L54.9556 11.061C55.9036 10.5936 56.7157 10.6174 57.7152 11.0835L58.7557 11.741L62.9639 14.4981L55.7557 18.1569L55.732 17.4016L28.5961 32.2299C27.3378 32.8162 26.1283 32.8162 24.7735 32.181L11.8665 24.8778L10.5989 24.8646L0.199289 24.7656" fill="#E10026"/>
<path fill-rule="evenodd" clip-rule="evenodd" d="M102.053 24.6401L99.983 25.4905L87.3123 32.6405C86.6957 32.9904 85.9866 33.0908 85.0993 32.6498L71.3314 25.4825L77.198 22.4258L84.5646 26.1718C85.6631 26.6458 86.7895 26.494 87.7745 25.7928L95.0869 21.9861" fill="#E10026"/>
<path fill-rule="evenodd" clip-rule="evenodd" d="M80.6945 20.428L84.9264 22.3915C85.5589 22.6727 86.1016 22.616 86.5558 22.3915L91.3476 19.8695L86.9849 17.6987L85.0597 17.7476" fill="#E10026"/>
<path fill-rule="evenodd" clip-rule="evenodd" d="M96.921 16.6146L90.9488 13.5988L94.6209 11.4426L101.02 14.7185C100.656 14.7066 100.344 14.8004 99.8946 15.0671" fill="#E10026"/>
<path fill-rule="evenodd" clip-rule="evenodd" d="M80.4925 13.822L75.9489 11.024L70.5603 14.7832L74.3842 17.222" fill="#E10026"/>
<path fill-rule="evenodd" clip-rule="evenodd" d="M71.3961 19.5288L65.4093 22.6318L61.5775 19.8563L66.8974 16.8576" fill="#E10026"/>
<path fill-rule="evenodd" clip-rule="evenodd" d="M47.3817 21.9372L55.8561 26.7132C56.3143 26.9825 56.7262 26.9575 57.0894 26.7132L84.8326 10.9355C85.4558 10.5856 86.3709 10.5539 86.8871 10.8867L100.345 18.4936C100.699 18.6468 101.166 18.7128 101.737 18.6917L112.33 18.7366L112.359 24.8554H101.468L100.905 25.1128L87.3493 17.9575C86.7129 17.7146 86.0962 17.6815 85.51 17.9575L57.6241 33.1793C57.0207 33.446 56.3195 33.4724 55.4005 33.1555L41.4926 25.1907" fill="#003A80"/>
<path fill-rule="evenodd" clip-rule="evenodd" d="M112.325 14.7832H100.363C100.081 14.7542 99.8537 14.6855 99.6847 14.5852L87.0021 6.90433C86.1993 6.4884 85.3569 6.42502 84.3692 7.01393L57.6268 22.9606C57.339 23.1428 56.9798 23.1428 56.6207 23.152L55.6805 19.7454L55.7096 17.4848L83.7195 0.723472C85.0466 0.170219 86.3525 0.216433 87.6029 0.929457L100.587 8.3251C101.094 8.57994 101.344 8.81761 101.77 8.78989L112.312 8.7846" fill="#003A80"/>
<path fill-rule="evenodd" clip-rule="evenodd" d="M10.7112 8.9576L11.6289 8.80839L25.2688 0.372259C25.7335 0.0910112 26.6671 -0.0397099 27.2784 0.450164L41.0319 8.63277L35.634 12.0157L27.355 7.21069C26.2221 6.65743 25.6596 6.71421 24.6402 7.22257L16.2767 12.4488" fill="#003A80"/>
<path fill-rule="evenodd" clip-rule="evenodd" d="M16.2054 16.0284L21.3193 19.9962L17.5324 22.4918L13.0166 19.1036L11.9629 18.7484" fill="#003A80"/>
<path fill-rule="evenodd" clip-rule="evenodd" d="M31.6093 13.0785L27.5781 10.7322C26.906 10.2859 25.9989 10.2595 25.4192 10.6714L20.9575 13.6358L21.6296 17.1613L30.6626 17.1098" fill="#003A80"/>
<path fill-rule="evenodd" clip-rule="evenodd" d="M31.8113 19.7018L35.9812 22.6767L41.7012 18.7418L37.6212 16.0574" fill="#003A80"/>
<path fill-rule="evenodd" clip-rule="evenodd" d="M40.7466 14.3792L45.9411 11.2974L50.5784 14.3885L44.9151 17.1864" fill="#003A80"/>
<path fill-rule="evenodd" clip-rule="evenodd" d="M50.5468 20.2524L53.5573 21.9082L55.4706 22.9962C55.8944 23.1692 56.3117 23.1573 56.6286 23.1507L56.581 17.1494L54.273 16.8272" fill="#003A80"/>
<path fill-rule="evenodd" clip-rule="evenodd" d="M58.7545 11.741L57.714 11.0834C56.7145 10.6173 55.9024 10.5922 54.9543 11.0609L27.9149 26.1823C27.2613 26.5521 26.0175 26.6405 25.2543 26.2312L12.8701 18.718C12.5532 18.5437 12.2059 18.5979 11.757 18.6216H0.00528166V18.6256H0V24.8553H9.63375L10.5976 24.8646L11.8652 24.8778L24.7723 32.181C26.127 32.8161 27.3365 32.8161 28.5949 32.2298L55.7307 17.4016L55.7545 18.1569L62.9627 14.498L58.7545 11.741Z" fill="#E10026"/>
<path fill-rule="evenodd" clip-rule="evenodd" d="M66.0471 12.4091L56.663 7.0403C56.1057 6.77622 55.6225 6.79735 55.2607 7.01654L27.8792 22.4826C27.2771 22.847 26.5747 22.8747 25.8484 22.5552L12.1597 14.8981C11.757 14.7278 11.3846 14.766 10.9489 14.7489L0 14.7832L0.00528166 8.5535H10.805C11.4176 8.53633 11.8362 8.52973 12.2561 8.72383L25.3638 15.5055C26.0888 15.825 26.6843 15.8013 27.2045 15.4566L54.6784 0.360325C55.4297 -0.122947 56.5547 -0.136151 57.4116 0.418424L71.6563 9.28633" fill="#E10026"/>
<path fill-rule="evenodd" clip-rule="evenodd" d="M102.053 24.6401L99.983 25.4905L87.3123 32.6405C86.6957 32.9904 85.9866 33.0908 85.0993 32.6498L71.3314 25.4825L77.198 22.4258L84.5646 26.1718C85.6631 26.6458 86.7895 26.494 87.7745 25.7928L95.0869 21.9861" fill="#E10026"/>
<path fill-rule="evenodd" clip-rule="evenodd" d="M80.6945 20.428L84.9264 22.3915C85.5589 22.6727 86.1016 22.616 86.5558 22.3915L91.3476 19.8695L86.9849 17.6987L85.0597 17.7476" fill="#E10026"/>
<path fill-rule="evenodd" clip-rule="evenodd" d="M96.921 16.6146L90.9488 13.5988L94.6209 11.4426L101.02 14.7185C100.656 14.7066 100.344 14.8004 99.8946 15.0671" fill="#E10026"/>
<path fill-rule="evenodd" clip-rule="evenodd" d="M80.4925 13.822L75.9489 11.024L70.5603 14.7832L74.3842 17.222" fill="#E10026"/>
<path fill-rule="evenodd" clip-rule="evenodd" d="M71.3961 19.5288L65.4093 22.6318L61.5775 19.8563L66.8974 16.8576" fill="#E10026"/>
<path fill-rule="evenodd" clip-rule="evenodd" d="M47.3817 21.9372L55.8561 26.7132C56.3143 26.9825 56.7263 26.9575 57.0894 26.7132L84.8326 10.9355C85.4558 10.5856 86.3709 10.5539 86.8872 10.8867L100.344 18.3827C100.697 18.5359 101.165 18.6019 101.735 18.5808L112.358 18.6256V24.8554H101.529H100.413L87.3467 17.9575C86.7102 17.7146 86.0936 17.6815 85.5073 17.9575L57.6215 33.1793C57.0181 33.446 56.3169 33.4724 55.3979 33.1555L41.49 25.1907" fill="#003A80"/>
<path fill-rule="evenodd" clip-rule="evenodd" d="M112.357 14.7832H100.363C100.081 14.7542 99.8537 14.6855 99.6847 14.5852L87.0021 6.90433C86.1993 6.4884 85.3569 6.42502 84.3692 7.01393L57.6268 22.9606C57.339 23.1428 56.9798 23.1428 56.6207 23.152L55.6805 19.7454L55.7096 17.4848L83.7196 0.723472C85.0466 0.170219 86.3525 0.216433 87.6029 0.929457L100.587 8.3251C101.094 8.57994 101.343 8.58522 101.768 8.55881L112.357 8.55353" fill="#003A80"/>
<path fill-rule="evenodd" clip-rule="evenodd" d="M36.38 49.8033V40.1181H38.3104V49.8033M30.3932 49.8033V41.7699H27.5451V40.1181H35.1718V41.7699H32.325V49.8033H30.3919H30.3932ZM21.0288 49.8033V40.2131H22.9593V48.1488H27.8818V49.802H21.0288V49.8033ZM11.3251 40.1181H13.2595V45.4222C13.2595 46.2514 13.3057 46.8337 13.3057 47.0265C13.4008 47.4173 13.5962 47.8082 13.8827 47.9996C14.1732 48.199 14.6552 48.3403 15.1873 48.3403C15.7194 48.3403 16.1512 48.199 16.4404 47.9996C16.7309 47.8082 16.9263 47.4622 16.9738 47.173C17.0201 46.8852 17.0676 46.2989 17.0676 45.5159V40.1167H19.0007V45.2228C19.0007 46.3966 18.9518 47.2232 18.8541 47.7065C18.7564 48.199 18.5174 48.6321 18.2256 48.9226C17.9364 49.217 17.5509 49.5088 17.1164 49.7056C16.6332 49.8997 16.0073 49.9987 15.2322 49.9987C14.3647 49.9987 13.6398 49.901 13.1578 49.7056C12.6759 49.5088 12.289 49.1682 12.0474 48.875C11.7582 48.5331 11.5654 48.1475 11.469 47.8068C11.3713 47.2232 11.3211 46.3953 11.3211 45.3205V40.1154L11.3251 40.1181ZM0.00518799 49.8033V40.1181H2.95235L4.63984 46.7386L6.35374 40.1181H9.34448V49.8033H7.51043L7.46421 42.2122L5.58262 49.8033H3.72348L1.84056 42.2122V49.8033H0.00518799Z" fill="#E10026"/>
<path fill-rule="evenodd" clip-rule="evenodd" d="M104.585 46.7386L106.417 46.5392C106.518 47.1743 106.755 47.6602 107.045 47.9058C107.384 48.2003 107.913 48.3415 108.497 48.3415C109.081 48.3415 109.606 48.2003 109.893 47.9533C110.182 47.7077 110.375 47.371 110.375 47.0753C110.375 46.8864 110.28 46.6408 110.183 46.4969C110.037 46.3464 109.75 46.1536 109.458 46.0546C109.268 46.0097 108.683 45.8605 107.912 45.6664C106.903 45.3732 106.178 45.0365 105.789 44.6919C105.209 44.1558 104.923 43.4745 104.923 42.6981C104.923 42.2122 105.072 41.6761 105.308 41.2839C105.596 40.8944 106.033 40.5049 106.516 40.3121C107 40.0691 107.672 39.9226 108.397 39.9226C109.556 39.9226 110.52 40.2144 111.1 40.7478C111.679 41.2852 112.066 42.0181 112.066 42.8909L110.133 42.9873C110.037 42.5027 109.843 42.1118 109.606 41.919C109.314 41.721 108.879 41.5784 108.349 41.5784C107.82 41.5784 107.338 41.721 107.043 41.9653C106.853 42.0616 106.754 42.3059 106.754 42.5489C106.754 42.7456 106.853 42.9873 107 43.1312C107.237 43.3292 107.863 43.6211 108.784 43.8152C109.75 44.0119 110.471 44.3024 110.908 44.4965C111.339 44.7381 111.729 45.0788 111.97 45.4749C112.21 45.8618 112.357 46.4415 112.357 47.0277C112.357 47.5625 112.21 48.0999 111.923 48.5858C111.632 49.0717 111.151 49.4639 110.616 49.6567C110.037 49.8534 109.314 50 108.497 50C107.338 50 106.369 49.7069 105.743 49.1694C105.071 48.6347 104.68 47.8081 104.583 46.7386M101.303 40.118H103.234V49.8032H101.303V40.118ZM96.7638 45.9595L95.4117 42.3548L94.1111 45.9595H96.7638ZM100.291 49.8032H98.211L97.3897 47.6127H93.5314L92.7088 49.8032H90.6846L94.3527 40.118H96.4297L100.292 49.8032H100.291ZM81.9422 49.8032V40.118H83.8251L87.7876 46.5392V40.118H89.6204V49.8032H87.6411L83.7762 43.5273V49.8032H81.9408H81.9422ZM78.1552 40.118H80.0857V49.8032H78.1552V40.118ZM66.9079 49.8032V40.118H69.8551L71.5426 46.7386L73.2314 40.118H76.2234V49.8032H74.3881L74.3418 42.2122L72.4603 49.8032H70.6236L68.7433 42.2122V49.8032H66.9066H66.9079ZM59.2337 44.2047H60.6808C61.5998 44.2047 62.227 44.1558 62.4172 44.107C62.6113 44.0581 62.8529 43.9142 62.9493 43.7174C63.0932 43.5273 63.1909 43.2817 63.1909 42.9873C63.1909 42.6928 63.0932 42.4063 62.9493 42.2122C62.7565 42.0181 62.466 41.8689 62.1782 41.8213C62.0303 41.8213 61.5008 41.7712 60.7271 41.7712H59.2337V44.2047ZM57.3019 49.8032V40.118H61.3569C62.371 40.118 63.1408 40.2131 63.5752 40.3596C64.0598 40.5551 64.448 40.8931 64.7332 41.3328C65.0263 41.7698 65.1716 42.3046 65.1716 42.842C65.1716 43.5722 64.9299 44.2034 64.5431 44.6431C64.1562 45.1303 63.4814 45.4736 62.6615 45.5674C63.0483 45.7628 63.4339 46.0533 63.6755 46.3451C63.9172 46.6395 64.3027 47.1743 64.7332 47.952L65.9427 49.8019H63.628L62.2746 47.6589C61.7939 46.9802 61.4057 46.4943 61.213 46.2989C61.0215 46.1021 60.8274 45.9582 60.6333 45.908C60.4418 45.809 60.0536 45.7628 59.6192 45.7628H59.235V49.8032H57.3032H57.3019ZM48.3719 49.8032V40.118H55.4665V41.7698H50.3011V43.9129H55.1285V45.5674H50.3011V48.1488H55.658V49.8019H48.3706L48.3719 49.8032ZM42.3126 49.8032V41.7698H39.4644V40.118H47.1149V41.7698H44.2668V49.8032H42.3126Z" fill="#003A80"/>
</svg>
